<?xml version="1.0" encoding="UTF-8" standalone="no"?>
<!-- Created with Inkscape (http://www.inkscape.org/) -->
<svg
   xmlns:svg="http://www.w3.org/2000/svg"
   xmlns="http://www.w3.org/2000/svg"
   version="1.0"
   width="602.36218"
   height="113.06693"
   id="svg1879">
  <defs
     id="defs1881" />
  <g
     id="layer1">
    <path
       d="M 499.45524,16.232417 C 496.43404,16.843388 490.80348,17.816826 486.86511,19.244474 C 480.11092,21.706229 473.97719,25.387348 468.40509,29.019493 C 465.33493,31.008776 463.23786,35.616566 461.33774,38.78757 C 457.76442,44.673196 454.89743,55.513374 459.70436,62.88511 C 460.47173,64.00837 462.05612,65.082306 462.82385,66.203369 C 464.35893,68.564638 467.17439,71.480592 469.52871,72.90824 C 471.21106,73.931014 473.00374,74.649401 474.74491,75.723336 C 476.23102,76.647821 477.56038,78.686067 479.24527,79.257191 C 480.82968,79.711399 481.90361,79.917126 483.43906,80.586548 C 484.15744,80.8416 484.76805,81.709809 485.53577,81.915907 C 487.48521,82.526496 489.93527,83.137456 492.54464,83.806519 C 496.43404,84.780328 499.9679,86.060351 505.07666,83.904818 C 506.2584,83.392519 508.81625,82.014196 509.47873,80.9399 C 510.55047,79.100439 510.65826,77.464508 511.42562,75.112747 C 512.03659,73.065002 513.3166,71.115546 513.62318,69.175599 C 513.87823,67.385102 513.26727,65.543444 511.73219,63.652462 C 511.2199,63.034921 510.55047,62.166352 509.17215,62.52226 C 507.33014,62.934075 505.33391,65.031145 503.90407,66.00679 C 502.88166,66.71604 500.83392,67.996062 499.71065,68.309587 C 491.62966,70.455621 471.26258,59.508007 470.13931,54.853449 C 467.6867,44.928249 479.70605,33.823872 485.13089,30.241053 C 485.79082,29.838737 486.86511,28.656643 487.58351,28.457868 C 488.40019,28.144344 489.98679,28.202806 490.44794,28.046054 C 491.5712,27.73947 492.85123,27.072233 493.67521,26.814996 C 495.82344,26.155061 498.48179,28.202806 498.62941,30.704388 C 498.8936,34.542269 496.84623,39.662719 498.12625,41.188668 C 498.9919,42.269903 501.85632,42.576487 503.34244,42.98135 C 507.89176,44.310708 508.35546,45.440909 511.47495,38.432033 C 512.59822,35.822652 512.95376,30.142763 511.87983,26.155061 C 510.59943,21.392705 508.71101,17.255201 505.44171,16.536804 C 503.79883,16.124991 503.95559,15.869568 501.85632,15.918903 C 499.71065,15.975179 500.4221,16.026701 499.45524,16.232417 z M 406.80796,17.255201 C 402.00358,18.427426 397.34647,18.783335 392.43429,20.880045 C 389.20737,22.267854 385.4254,22.621205 382.09984,23.440451 C 377.23698,24.668951 372.63833,24.058361 369.00398,26.25336 C 367.41957,27.229367 365.98279,35.211692 364.39838,37.05335 C 359.38791,43.088787 359.43725,46.05188 358.71885,47.331903 C 358.36295,48.000964 356.68062,46.975993 351.81741,61.39899 C 348.53861,71.174019 350.27977,85.341964 367.46891,88.924783 C 372.84441,90.097379 381.99935,90.303105 386.29361,87.487998 C 389.87643,85.135876 393.09677,82.121623 390.99751,75.821635 C 390.59519,74.551112 390.64415,73.015666 389.61918,72.444904 C 386.80373,70.968293 382.6103,73.783389 380.66999,74.749897 C 376.47657,76.797632 371.91994,77.771081 365.42117,74.649401 C 360.97232,72.55233 358.62056,69.325421 363.48121,66.261841 C 364.04285,65.899353 365.06781,64.874021 365.7862,64.677433 C 368.28778,63.851608 371.77012,64.61897 374.68607,63.910081 C 376.93041,63.338948 377.49204,62.630059 380.97656,62.934075 C 383.42918,63.191683 386.03637,61.9113 389.47156,61.656238 C 393.76363,61.39899 394.02126,60.987176 394.78861,60.582313 C 397.18971,59.30192 396.78483,61.349665 400.36071,59.559528 C 401.94512,58.740284 401.64073,53.928965 400.82404,52.449795 C 400.05413,51.013011 400.00517,47.380866 398.37143,46.868557 C 396.67959,46.358081 396.21625,47.68744 395.507,48.099253 C 393.15305,49.526901 389.52089,50.40205 385.06255,51.061976 C 380.3075,51.831894 376.72432,52.805704 371.25051,51.633109 C 375.65039,52.704847 366.85795,51.427382 368.65064,48.354306 C 369.87219,46.100844 371.96927,43.236412 373.71044,41.34543 C 377.34478,37.249939 412.07604,32.850433 413.76788,31.167724 C 415.0479,30.241053 414.12378,26.618407 413.86618,25.436674 C 413.61112,24.512189 413.14997,21.853855 413.00052,21.292219 C 412.8434,20.631933 411.1026,19.70781 411.1026,19.295996 C 411.05108,17.405013 411.05108,16.173954 406.80796,17.255201 z M 231.49709,17.304166 C 226.18003,18.022914 225.30488,19.038386 223.25714,19.60952 C 218.96506,20.631933 215.99284,20.220119 211.60028,21.292219 C 209.4451,21.853855 207.20077,23.182841 205.25132,23.802938 C 203.92196,24.257137 202.6909,24.058361 201.67543,24.718287 C 199.62989,26.105735 200.80248,32.801469 200.14036,35.518265 C 199.62989,37.919362 196.70699,40.627032 195.83878,43.088787 C 192.0009,54.184027 187.03976,73.469875 197.11916,81.964871 C 198.60491,83.195929 200.5942,83.598234 202.54364,84.417479 C 209.50356,87.181425 211.08797,85.802742 217.27067,86.413702 C 217.98907,86.465224 218.40343,86.76925 219.62499,86.514189 C 221.21853,86.109315 223.20781,84.525277 224.90001,83.754997 C 228.47589,82.063161 228.986,75.772672 227.50902,72.55233 C 227.14654,71.784979 226.53558,70.918957 225.97395,70.092772 C 225.41231,69.175599 225.04946,68.20215 224.43887,68.103861 C 221.21853,68.152824 221.87845,70.556107 219.73278,71.115546 C 214.56299,72.503367 206.63913,72.140517 203.1546,70.556107 C 201.46935,69.786199 199.26484,68.564638 199.9836,65.801064 C 201.72695,59.20363 216.10062,59.81459 223.4139,58.021897 C 225.2066,57.561119 227.76444,56.486824 230.01098,55.768426 C 233.23825,54.745652 235.99489,54.390113 236.30147,53.877443 C 237.22595,52.756379 234.15542,42.527151 231.75214,41.85809 C 231.39622,41.759801 229.86116,41.95639 229.4983,42.063817 C 227.97017,42.46869 203.10528,52.087317 208.4786,42.370389 C 209.19004,40.992078 210.06519,38.382697 211.08797,37.200975 C 214.71976,32.95822 218.29564,32.396595 222.48941,31.778684 C 225.30488,31.324486 228.42437,30.34885 231.85262,30.093799 C 234.77333,29.887702 238.29987,28.911705 241.21364,28.813405 C 242.85651,28.715116 244.28379,28.911705 244.54141,28.764441 C 245.152,28.301106 244.59037,27.63424 245.10303,26.461645 C 246.43239,23.290639 243.36881,22.41548 241.83374,20.119623 C 241.41935,19.501722 241.32107,18.841797 240.95857,17.966648 C 240.24713,16.380042 234.05493,16.941677 231.49709,17.304166 z M 585.33954,10.19698 C 586.72737,9.8341304 583.60751,10.552889 579.8164,11.624627 C 578.90143,11.881875 574.55088,13.110747 572.75856,12.855324 C 572.0398,12.747898 571.27244,13.978956 569.84479,13.672372 C 569.23384,13.564585 565.08938,14.489059 560.68732,15.001359 C 554.24007,15.720117 550.86334,16.380042 545.54629,17.865791 C 544.20999,18.2217 541.85786,17.865791 540.52888,18.2217 C 535.72194,19.401236 532.39637,19.038386 528.92134,21.341183 C 524.42097,24.257137 524.98261,29.119979 524.77652,34.188918 C 524.72536,35.773328 521.49808,40.992078 520.58055,43.905835 C 518.79041,49.634699 514.48921,64.165132 517.04925,71.735644 C 517.25533,72.248315 518.07202,73.015666 518.3786,73.420539 C 520.6814,76.902872 522.26545,78.075468 526.15521,79.966452 C 528.92134,81.246474 536.38406,83.806519 541.65908,82.987645 C 541.91414,82.93831 543.39331,82.170958 543.70683,82.121623 C 545.23278,81.709809 546.51279,82.32077 548.09939,81.758773 C 550.3017,80.9399 555.47112,80.684839 557.87222,79.149764 C 561.24932,76.954394 561.50656,67.741011 557.05553,66.516894 C 555.56943,66.154405 554.39683,67.029564 551.0201,67.591189 C 544.01085,68.665496 538.99125,71.373166 530.55471,68.103861 C 528.9703,67.483402 527.33437,65.850028 527.94533,63.545034 C 529.48042,57.511784 549.07283,61.656238 554.49767,60.532977 C 558.53433,59.657828 560.99389,60.376216 563.04164,57.81617 C 563.7509,56.900823 563.90766,55.571836 564.21423,54.034205 C 564.62605,52.194744 566.41874,53.217518 564.57708,49.023738 C 564.01545,47.68744 560.73884,42.674777 559.71387,42.370389 C 557.15602,41.603039 555.36332,43.542985 554.03434,43.905835 C 552.60669,44.261383 550.55895,43.699748 548.41292,43.85651 C 545.18343,44.0531 541.85786,44.771487 541.03899,44.111561 C 540.17297,43.393174 536.59015,45.185858 534.60086,44.160887 C 531.93303,42.782204 534.74849,38.275271 535.21183,36.796101 C 537.66189,28.970167 545.13447,30.704388 553.06053,28.509389 C 563.39754,25.53716 566.92884,28.144344 573.17038,26.618407 C 575.16184,26.105735 577.46464,26.559934 579.46307,26.047273 C 581.50861,25.53716 587.64454,24.825713 588.56902,25.02486 C 589.99667,25.279912 592.15183,25.132286 592.8611,24.619987 C 593.67777,24.156651 593.53015,22.05958 593.42272,21.242894 C 592.96852,16.843388 591.73747,15.307943 589.94733,12.649598 C 588.82407,10.957401 588.87303,9.3218305 585.33954,10.19698 z M 252.31801,14.135708 C 246.17477,15.769081 250.68208,28.911705 249.91472,34.287207 C 249.03921,40.73483 249.35273,46.868557 248.07526,53.060756 C 246.48829,60.532977 244.79645,68.054525 243.00632,75.880459 C 241.2626,83.294218 244.79645,84.986055 250.17197,86.109315 C 250.88122,86.25694 252.16125,87.024302 253.13469,86.15865 C 255.58731,83.963281 254.51301,75.723336 255.18243,72.395568 C 255.99912,68.763785 257.69096,57.717881 259.83955,55.513374 C 261.01179,54.340779 262.24065,53.161242 263.82725,54.696687 C 267.66513,58.279506 270.32383,63.446735 272.88388,68.358912 C 274.05647,70.605443 276.92091,71.885465 277.58776,74.39435 C 278.61274,78.232231 279.07388,87.536963 281.78375,89.179844 C 282.85548,89.790805 283.97875,89.28033 285.51419,89.584707 C 286.23258,89.741469 288.18203,90.509192 289.60932,90.048043 C 291.35048,89.437082 292.47411,84.012605 292.88593,82.170958 C 294.31576,75.51761 291.75535,69.83772 292.82965,63.753319 C 292.88593,63.4957 292.98641,61.754538 293.03575,61.499487 C 293.49652,59.508007 292.52307,57.205211 292.93745,55.206801 C 293.9109,50.65967 293.24146,43.037626 294.00918,36.945913 C 294.47252,33.05652 293.39822,30.142763 294.16594,26.510608 C 294.77655,23.339603 294.26643,19.295996 293.03575,16.330716 C 291.86315,13.564585 285.15828,14.027921 284.43989,17.147404 C 283.92979,19.244474 285.36656,20.524496 284.85427,22.777967 C 284.43989,24.668951 284.13588,29.581128 283.88045,35.15323 C 283.41712,44.879284 282.80652,56.280725 278.86779,54.59584 C 277.02833,53.779154 275.33394,51.476347 274.51725,49.477937 C 273.85733,47.942491 272.11397,46.819231 271.29728,45.489874 C 268.22676,40.88428 264.44516,38.225935 262.85125,31.83496 C 260.86196,23.802938 266.13005,16.941677 257.93907,14.540581 C 256.86733,14.234007 254.10814,13.672372 252.31801,14.135708 z M 326.2904,12.391989 C 322.09661,13.110747 318.25618,12.343024 313.85667,13.417321 C 308.49029,14.697343 302.654,16.026701 298.46023,18.783335 C 297.28763,19.501722 297.13087,22.729004 297.13087,22.729004 C 296.4618,35.567601 310.0747,24.107326 314.98687,27.02327 C 315.24449,27.180032 316.01184,27.947754 316.15947,28.202806 C 316.31623,28.401592 316.46604,29.068456 316.51501,29.218278 C 317.48846,32.141534 317.18443,38.895369 316.20843,41.139703 C 315.69832,42.419725 315.0362,41.041403 314.73182,42.527151 C 312.93913,42.831539 309.81964,43.34421 308.58858,44.366612 C 307.61514,45.185858 306.64864,48.611925 306.49188,49.990236 C 305.67519,56.643586 310.73463,57.766846 311.6613,58.436268 C 312.57664,59.096193 312.93913,57.361973 315.49004,58.021897 C 315.5485,60.1705 315.39174,61.094614 315.59784,62.472925 C 315.90442,64.61897 315.39174,68.251114 314.87944,70.860494 C 314.16068,74.237588 312.57664,83.499945 313.96409,86.364377 C 314.52573,87.595435 315.90442,86.926002 318.25618,88.510412 C 319.12439,89.123568 320.81659,90.146343 322.86396,89.486418 C 324.44837,88.924783 324.59818,86.207615 325.01001,84.316993 C 325.67943,81.098849 324.65447,76.027723 325.21609,72.091553 C 325.82669,67.797287 326.90099,57.411297 327.05775,56.280725 C 327.66871,55.513374 331.6564,54.902414 334.52778,54.134691 C 335.49428,53.877443 336.62705,52.903994 337.38527,52.648942 C 339.02814,52.087317 340.35749,52.136281 341.7358,51.525321 C 343.52849,50.708634 345.41912,49.17355 346.90522,48.000964 C 351.14797,44.624233 355.44956,42.527151 356.16795,41.446276 C 357.03396,40.222158 357.13444,38.736049 358.26466,37.249939 C 362.09559,32.44556 357.4973,23.388928 353.60753,18.685035 C 353.09523,18.022914 352.58513,17.049103 351.76589,16.843388 C 350.43908,16.429007 350.02471,16.686626 349.05127,16.124991 C 348.39133,15.720117 347.25858,14.489059 346.54969,14.282972 C 345.26929,13.878099 342.80973,13.978956 341.48075,13.672372 C 338.71462,13.110747 329.66713,11.881875 326.2904,12.391989 z M 326.59441,25.642399 C 329.61561,24.92656 332.58088,25.387348 336.00695,25.338384 C 339.38368,25.279912 343.22192,25.436674 345.52472,27.839956 C 350.58635,33.264804 335.19026,40.678553 329.20379,41.090367 C 326.59441,41.296465 327.10708,39.810345 327.26384,38.069183 C 327.26384,37.870398 326.75117,34.699392 326.18953,32.703169 C 325.52267,30.449337 326.0843,29.169315 326.0843,29.169315 C 326.13327,28.095018 325.01001,25.998309 326.59441,25.642399 z M 435.043,9.5768924 C 433.50793,10.089192 430.75093,13.564585 429.88272,15.099659 C 429.11501,16.429007 427.21707,17.61074 426.50598,18.940087 C 424.91463,21.902818 423.07261,24.668951 421.54448,27.533383 C 418.16775,33.875394 416.42659,40.940555 412.69395,47.125804 C 411.41611,49.27879 408.34341,49.428612 407.67617,52.342369 C 406.759,56.182436 406.759,60.275729 405.32221,63.701797 C 403.27446,68.665496 400.15498,70.504957 398.8841,77.052694 C 397.80066,82.477532 400.72356,84.672541 403.99286,85.64598 C 406.85729,86.514189 408.24511,82.93831 408.8557,81.501525 C 410.39115,77.722116 413.86618,66.971091 417.29224,65.801064 C 421.48821,64.363908 423.9971,65.031145 428.80148,63.142358 C 430.23862,62.630059 436.3815,62.985596 440.00414,62.42396 C 439.95518,64.932855 439.50098,77.003729 439.55031,80.273024 C 439.65079,86.465224 441.39196,92.144752 443.7441,92.961811 C 445.53642,93.630872 447.22167,93.069237 448.80571,93.216862 C 449.06078,92.811989 449.01182,92.556938 449.26906,92.194088 C 449.42618,92.044266 449.68124,92.044266 449.77954,91.838179 C 450.08611,91.426365 449.93629,91.119792 450.13507,90.509192 C 451.26528,87.024302 451.57186,80.635513 450.64775,76.647821 C 449.31838,70.918957 450.49793,64.570005 450.4486,59.459043 C 453.76723,58.230182 454.27952,57.361973 454.74067,53.36734 C 454.84115,52.599617 454.99791,50.146999 454.99791,50.039572 C 454.99791,49.840425 454.94895,48.768677 454.94895,48.768677 C 455.04725,48.562589 454.89743,47.331903 454.84115,47.233602 C 454.32885,46.100844 452.69548,46.770267 450.90279,46.819231 C 451.20936,44.209851 450.95176,39.042623 450.34116,35.822652 C 449.68124,32.190498 450.39012,30.34885 449.36735,27.229367 C 449.1123,26.461645 449.36735,25.593436 448.55066,24.107326 C 448.14579,23.241303 448.14579,22.160428 447.88854,21.292219 C 447.42741,19.60952 445.6347,18.329127 444.96785,16.892352 C 443.38125,13.309522 441.9536,7.2247603 435.043,9.5768924 z M 435.35653,26.76566 C 437.14922,26.304883 438.22096,27.582708 439.29526,29.581128 C 440.11195,31.116202 439.65079,43.037626 439.70013,46.306932 C 435.7614,46.819231 429.93205,46.868557 425.12036,46.770267 C 425.01988,45.539209 426.86153,42.419725 428.85994,38.324236 C 429.93205,36.178201 430.33692,33.875394 431.3619,31.883925 C 432.79867,29.169315 434.6871,26.971747 435.35653,26.76566 z M 180.64843,13.159712 C 177.22235,14.027921 174.04441,15.158121 170.72578,15.975179 C 168.62907,16.487478 166.78741,16.487478 164.53358,17.098439 C 163.45964,17.405013 161.10751,18.734 160.03358,19.038386 C 158.19412,19.501722 157.77975,19.244474 155.732,19.806109 C 155.07208,20.011836 153.48767,20.730223 152.81862,20.880045 C 150.61411,21.497945 148.31825,21.706229 146.83214,23.035577 C 143.50656,26.105735 143.50656,31.472111 145.76039,36.028379 C 146.78318,38.069183 149.74809,37.409259 149.08816,41.701328 C 148.01387,48.768677 144.83592,51.427382 143.96771,55.157465 C 143.35711,57.717881 143.24931,60.118967 143.10169,62.679022 C 142.78817,69.175599 143.66368,75.211036 147.65137,80.073878 C 149.39254,82.219923 160.18304,86.207615 163.71689,86.975338 C 168.62907,88.000308 172.15343,86.15865 175.63794,85.54769 C 176.65378,84.574241 177.88228,83.137456 178.18887,82.170958 C 179.77327,77.003729 176.65378,69.687898 175.53052,69.276085 C 172.20275,69.325421 171.59179,71.42213 169.0829,72.042227 C 163.2046,73.469875 156.60716,70.406657 154.1476,67.846251 C 153.17415,66.823466 153.02433,64.570005 153.58597,63.338948 C 154.0493,62.267198 155.8398,60.1705 156.91373,59.81459 C 158.85405,59.145157 160.13407,59.716291 162.18182,59.20363 C 164.78863,58.534568 168.31554,57.561119 170.66731,56.999123 C 172.82285,56.437488 175.53052,57.81617 178.34562,57.10692 C 181.05328,56.437488 186.17155,55.768426 187.09568,54.902414 C 187.70664,54.085727 187.45157,50.963685 187.09568,49.732989 C 186.37984,46.868557 185.71041,43.236412 183.05171,42.46869 C 179.3684,41.34543 173.63954,44.516434 167.6041,45.539209 C 161.97353,46.463694 157.623,45.695971 159.15807,40.479778 C 159.82749,38.225935 159.87646,36.994877 161.25513,35.567601 C 163.76622,33.05652 168.4723,32.141534 173.38449,31.116202 C 175.12565,30.753724 177.06559,29.986001 178.75743,29.681614 C 181.00432,29.276741 183.05171,29.276741 184.94269,28.764441 C 185.96546,28.509389 187.96388,27.839956 190.21772,27.435093 C 192.31442,27.02327 194.71806,26.866518 195.378,26.304883 C 196.91308,24.975535 192.36375,16.173954 191.80213,15.207456 C 191.69433,15.001359 191.69433,15.050694 191.59602,14.844607 C 190.73001,12.391989 184.33209,12.235227 180.64843,13.159712 z M 108.7731,11.369575 C 105.81039,11.881875 98.082736,13.466284 97.570436,14.952394 C 97.266049,15.720117 97.109297,17.561775 96.645951,19.452758 C 96.133291,21.647767 95.012588,22.729004 95.571656,24.718287 C 97.008801,29.730939 100.89821,29.326077 99.510383,34.081491 C 98.644371,37.151639 96.901014,46.208632 93.938281,47.743716 C 92.50151,48.511439 90.40443,48.099253 89.695541,48.660889 C 89.124408,49.585363 88.464483,55.974152 90.048893,59.096193 C 90.561553,60.069643 92.353885,61.045649 92.658262,61.9113 C 93.170562,63.446735 92.707227,66.872802 92.50151,67.640154 C 90.306141,76.647821 89.18287,86.720286 97.413674,88.611269 C 98.337798,88.816985 99.973719,89.023082 100.27811,88.561933 C 105.49686,81.040386 98.693697,75.566574 101.9725,67.741011 C 103.55655,64.00837 104.53036,63.596557 107.13973,64.825057 C 110.92134,66.617751 116.6502,71.735644 118.34239,72.90824 C 124.68186,77.307745 127.54885,86.621986 135.11937,84.316993 C 137.06625,83.706032 142.02776,78.587768 141.1526,75.054274 C 141.00498,74.443313 140.38488,73.015666 140.08051,72.346604 C 138.39561,69.018837 133.9961,67.996062 130.41328,65.543444 C 129.13289,64.61897 127.95116,63.142358 126.68064,62.215677 C 125.34434,61.242238 124.12243,59.81459 123.14678,58.485233 C 122.8424,58.178659 122.8424,57.460262 123.09745,56.793397 C 123.45336,55.925188 125.03777,54.902414 125.5994,54.134691 C 128.26468,50.502908 131.08014,46.515215 132.30389,41.446276 C 135.16833,29.37504 128.87784,17.453978 122.79344,13.721337 C 121.25579,12.796862 119.61292,12.343024 117.77346,11.781389 C 115.78199,11.212813 112.19918,10.700153 108.7731,11.369575 z M 112.45641,23.744467 C 116.80697,22.216332 121.46407,28.202806 122.124,30.044464 C 122.79344,31.935446 122.28076,34.336543 121.86676,36.028379 C 121.25579,38.736049 117.82974,41.34543 115.67675,42.782204 C 114.3474,43.650783 113.58005,46.05188 111.84582,46.407417 C 103.96141,48.148589 109.59198,34.643116 109.89637,33.163947 C 110.35971,31.008776 109.12865,28.401592 109.79808,26.361158 C 109.89637,25.900009 111.99308,23.901228 112.45641,23.744467 z M 75.165108,103.50455 C 75.569981,103.24913 75.569981,103.04085 75.825032,102.83512 C 75.981794,102.62903 76.138557,102.32246 76.288368,102.11673 C 76.798481,101.55509 76.543419,101.50577 76.798481,100.58128 C 78.591165,94.496883 77.006765,86.975338 79.002978,79.051475 C 79.7707,75.821635 80.992261,68.71446 82.321619,65.700206 C 83.040006,64.10667 84.783363,62.117387 85.188238,60.1705 C 86.723311,53.622391 81.76218,45.647007 80.531122,45.284157 C 79.201764,43.599262 66.670111,46.100844 58.586928,48.354306 C 53.625427,49.784511 53.527127,47.635919 44.37002,49.840425 C 39.970508,50.865386 36.544081,51.731408 35.619964,56.280725 C 35.058332,58.78962 36.544081,66.154405 37.667709,66.467929 C 41.812162,67.741011 43.857349,65.187907 49.382673,64.214097 C 52.80874,63.652462 54.804963,64.057335 58.123594,63.240647 C 59.768662,62.835774 62.780708,61.3007 65.291429,62.068423 C 66.569254,62.472925 67.231747,64.314944 66.620775,65.801064 C 66.059151,67.179376 64.985216,68.812749 63.805679,69.580472 C 62.071458,70.762195 59.050264,72.957203 57.051484,73.469875 C 55.51641,73.881689 53.929814,73.320053 52.453191,73.724926 C 51.68548,73.931014 49.843822,75.004949 48.870372,75.161711 C 44.676593,75.723336 38.334577,75.625047 34.901572,74.906649 C 33.572219,74.600076 31.524476,73.626627 30.351883,73.320053 C 25.903045,72.297279 20.015232,70.092772 18.891969,65.948317 C 16.689657,57.81617 31.887325,41.85809 35.776724,37.870398 C 39.921177,33.618146 44.00717,29.681614 49.076099,26.361158 C 51.016046,25.083322 53.014828,22.31719 55.467445,21.647767 C 56.646982,21.341183 57.414333,21.706229 57.927004,21.853855 C 62.268048,23.241303 64.315793,31.422786 65.340753,31.727163 C 68.76682,32.752134 71.481431,30.449337 72.300676,28.715116 C 73.323089,26.412309 72.911275,22.111103 72.143914,19.806109 C 71.069617,16.686626 66.983636,12.235227 64.168168,10.90624 C 63.143197,10.445091 62.012986,10.395765 60.889725,10.089192 C 59.763907,9.7241463 58.214582,8.9169572 56.464273,8.8511834 L 56.178892,8.8511834 L 56.0594,8.8511834 C 55.471828,8.8701896 54.865983,8.9823702 54.243328,9.223541 C 48.053325,11.526337 44.725557,15.256421 40.225562,18.841797 C 38.533359,20.171156 36.743227,21.341183 35.107298,22.777967 C 29.839582,27.229367 22.2687,35.361513 18.636915,41.394754 C 16.235822,45.333122 13.055313,47.488654 11.676996,52.756379 C 11.421941,53.729818 10.190884,54.951738 9.9427712,56.025674 C 9.6292511,57.254545 10.043623,58.073419 9.7370469,59.30192 C 9.4045259,60.727381 8.915611,62.793761 8.8545871,64.869639 L 8.8545871,65.691069 C 8.8805316,66.538086 8.9927111,67.378161 9.2243799,68.152824 C 9.4326628,68.812749 10.190884,69.276085 10.396972,69.942961 C 10.81098,71.174019 10.909275,72.248315 11.323647,73.420539 C 11.627666,74.188262 12.493682,74.749897 12.800259,75.26 C 14.592949,77.977169 15.416577,79.512253 18.124248,81.148184 C 21.550309,83.195929 26.818392,84.623577 31.011809,85.54769 C 32.037143,85.746837 33.216313,85.241107 34.241282,85.440253 C 34.545666,85.54769 35.313387,86.413702 35.619964,86.465224 C 37.361131,86.877037 39.764417,86.413702 41.603879,86.364377 C 51.940531,86.15865 57.770242,84.417479 64.168168,80.684839 C 64.779128,84.672541 64.011406,90.558157 63.910919,94.653645 C 63.854644,97.007963 64.168168,98.543037 64.168168,100.99347 C 64.524077,102.47922 68.823097,102.68749 70.046843,103.60284 C 71.788015,104.88286 74.701772,103.80856 75.165108,103.50455 z "
       style="fill:#080;fill-rule:evenodd"
       id="path10" />
  </g>
</svg>
